<?xml version="1.0" encoding="utf-8"?>
<!-- Generator: Adobe Illustrator 16.0.0, SVG Export Plug-In . SVG Version: 6.00 Build 0)  -->
<!DOCTYPE svg PUBLIC "-//W3C//DTD SVG 1.1//EN" "http://www.w3.org/Graphics/SVG/1.1/DTD/svg11.dtd">
<svg version="1.1" id="Ebene_1" xmlns="http://www.w3.org/2000/svg" xmlns:xlink="http://www.w3.org/1999/xlink" x="0px" y="0px"
	 width="708.66px" height="708.66px" viewBox="0 0 708.66 708.66" enable-background="new 0 0 708.66 708.66" xml:space="preserve">
<rect x="0" fill="#E95A0C" width="708.66" height="708.66"/>
<g id="Ebene_2" display="none">
</g>
<g>
	<path fill="#FFFFFF" d="M569.427,558.758l-12.361-5.188l-3.23-1.354v35.071c-33.6-13.13-101.128-36.495-156.102-36.495
		c-24.523,0-42.369,4.791-55.338,11.87c0.14-28.314,0.14-76.857-0.187-160.436c-2.168-1.136-4.309-2.265-6.422-3.396l-0.551-0.286
		c-8.252-4.407-15.955-8.687-23.452-12.994c-0.09,21.954-0.178,47.434-0.246,72.909c-0.132,50.49-0.137,83.058-0.058,104.183
		c-12.974-7.065-30.801-11.851-55.318-11.851c-54.963,0-122.489,23.365-156.093,36.495V342.851
		c44.56-15.477,83.171-25.867,115.483-31.129c-4.868-6.023-8.772-11.857-12.03-17.965c-1.053-1.991-2.085-4.159-3.077-6.464
		c-0.423-0.992-0.77-1.945-1.138-2.908c-34.204,6.484-74.022,17.799-119.132,33.904l-9.886,3.523l0.005,287.75v0.168v22.713
		l20.021-8.899c9.102-1.958,50.065-10.403,95.101-14.701c85.452-8.186,113.761,4.685,123.033,13.088l4.252,3.857h20.633l9.103,1.389
		l3.728-8.637c3.343-3.847,42.27-42.406,216.956,4.798l20.494,9.117V524.921l-9.002,21.479L569.427,558.758z"/>
	<path fill="#FFFFFF" d="M431.531,280.633c-13.599-1.819-26.153-2.75-37.602-2.75c-35.455,0-55.576,8.778-66.974,18.295
		c-11.402-9.518-31.521-18.295-66.983-18.295c-4.103,0-8.401,0.158-12.785,0.39c2.074,3.548,4.67,7.275,7.809,11.15
		c2.393,2.943,5.031,5.921,8.068,9.1c6.848,7.179,15.089,14.633,25.167,22.778c9.282,7.48,19.5,15.001,31.225,22.993l0.109,0.073
		l0.022,0.017l0.181,0.119c2.646,1.807,5.303,3.593,7.977,5.354c4.624,3.057,9.358,6.097,14.282,9.192
		c-0.052-11.149-0.112-22.797-0.169-34.999c1.817-3.435,11.378-16.386,52.075-16.386c1.728,0,3.504,0.037,5.293,0.085l-1.291-8.43
		l-2.022-13.25l13.252-2.022L431.531,280.633z"/>
	<path fill="#FFFFFF" d="M279.815,365.973c-1.55-1.012-3.116-2.031-4.633-3.046c-4.402-2.954-8.393-5.724-12.231-8.484
		c-4.559-3.296-8.947-6.602-13.042-9.821c-4.591-3.614-8.847-7.177-12.84-10.722c-47.4,2.407-100.381,21.694-103.15,22.717
		l-13.975,5.145l10.293,27.938l13.972-5.141c21.387-7.883,84.745-26.756,120.621-19.574l14.6,2.912L279.815,365.973z"/>
	<path fill="#FFFFFF" d="M269.418,417.6c-49.641-9.92-129.905,19.313-133.299,20.569l-7.979,2.937l5.879,15.967l7.988-2.938
		c0.782-0.288,79.147-28.832,124.078-19.849l8.339,1.665l3.337-16.685L269.418,417.6z"/>
	<path fill="#FFFFFF" d="M269.418,446.377c-49.641-9.926-129.905,19.318-133.299,20.569l-7.979,2.936l5.879,15.974l7.988-2.943
		c0.782-0.287,79.147-28.823,124.078-19.85l8.339,1.666l3.337-16.686L269.418,446.377z"/>
	<path fill="#FFFFFF" d="M212.774,282.024c0.796,1.865,1.655,3.689,2.589,5.446c4.384,8.218,9.906,15.359,15.845,21.935
		c0.022,0.025,0.044,0.053,0.072,0.081c8.301,9.09,17.419,17.13,26.914,24.597c4.149,3.261,8.363,6.427,12.612,9.504
		c3.911,2.807,7.866,5.54,11.848,8.208c9.616,6.458,19.396,12.513,29.191,18.28c0.148,0.088,0.293,0.178,0.444,0.265
		c0.558,0.327,1.114,0.659,1.67,0.986c9.22,5.387,18.446,10.51,27.592,15.394c0.195,0.104,0.397,0.208,0.595,0.313
		c5.083,2.719,10.15,5.354,15.172,7.927c16.357,8.378,32.199,15.966,47.209,22.881l2.103-5.009l0.443-1.058
		c-14.435-7.634-29.632-15.971-45.238-25.073c-6.534-3.812-13.129-7.76-19.743-11.827c-0.168-0.106-0.333-0.198-0.497-0.303
		c-7.077-4.358-14.178-8.858-21.243-13.528c-2.716-1.799-5.426-3.62-8.125-5.455c-0.109-0.072-0.215-0.144-0.317-0.214
		c-10.957-7.465-21.762-15.314-32.088-23.632c-9.36-7.56-18.399-15.516-26.457-23.961c-3.08-3.228-6.023-6.521-8.768-9.898
		c-4.827-5.958-9.035-12.19-12.001-18.477c-0.063-0.14-0.146-0.279-0.208-0.419c-2.982-6.424-4.437-12.867-3.868-18.478
		c0.514-5.619,2.97-10.607,6.929-15.11c3.945-4.493,9.157-8.353,14.711-11.636c11.261-6.523,23.672-10.917,35.269-14.379
		c11.684-3.384,22.711-5.852,32.589-7.738c9.872-1.906,18.583-3.255,25.782-4.285c3.597-0.528,6.814-0.958,9.624-1.31
		c2.263-0.303,4.242-0.555,5.952-0.751l1.705-10.8l0.973-6.186l-1.834-2.951l-5.651-9.038c-1.648,0.288-3.541,0.631-5.67,1.035
		c-2.889,0.529-6.211,1.159-9.937,1.912c-7.439,1.486-16.468,3.395-26.799,5.981c-10.321,2.566-21.941,5.832-34.504,10.236
		c-6.28,2.246-12.784,4.782-19.442,7.834c-6.658,3.055-13.47,6.621-20.248,11.082c-6.727,4.529-13.521,9.965-19.316,17.344
		c-2.877,3.682-5.442,7.91-7.31,12.607c-1.868,4.688-2.967,9.839-3.142,14.965c-0.187,5.13,0.517,10.189,1.817,14.903
		C210.756,276.933,211.7,279.52,212.774,282.024z"/>
	<path fill="#FFFFFF" d="M136.118,493.971l-7.979,2.938l5.879,15.961l7.988-2.933c0.782-0.287,79.147-28.826,124.078-19.848
		l8.339,1.664l3.337-16.684l-8.344-1.663C219.777,463.481,139.513,492.725,136.118,493.971z"/>
	<polygon fill="#FFFFFF" points="411.182,297.296 412.895,308.501 422.893,374.044 426.892,364.509 432.078,352.144 
		444.438,357.329 445.225,357.663 445.225,341.617 445.225,328.218 458.624,328.218 550.268,328.218 583.615,328.218 
		597.728,328.218 588.877,270.187 472.107,288.001 	"/>
	<polygon fill="#FFFFFF" points="613.334,341.617 606.556,341.617 606.227,341.617 602.997,341.617 599.777,341.617 
		583.615,341.617 550.268,341.617 458.624,341.617 458.624,363.274 458.946,363.41 460.609,364.104 463.802,365.446 
		465.646,366.217 506.083,383.169 511.734,385.538 517.368,387.9 559.019,405.355 588.797,417.834 610.205,426.806 622.565,431.994 
		617.388,444.354 614.073,452.254 638.37,452.254 638.37,341.617 	"/>
	<polygon fill="#FFFFFF" points="553.836,417.714 512.185,400.259 506.549,397.89 500.899,395.524 465.646,380.741 458.946,377.938 
		458.624,377.805 455.43,376.47 452.243,375.128 451.92,374.997 445.225,372.187 439.253,369.686 426.775,399.46 424.401,405.103 
		424.18,405.638 422.039,410.74 421.803,411.313 421.582,411.839 421.051,413.104 420.019,415.564 418.987,418.027 416.838,423.166 
		416.725,423.406 415.701,425.858 414.672,428.316 414.128,429.605 411.545,435.788 396.477,471.726 553.836,537.688 
		562.248,541.212 583.615,490.243 593.92,465.658 596.728,458.961 596.859,458.639 598.2,455.451 599.534,452.254 605.022,439.172 
		583.615,430.19 	"/>
	<path fill="#FFFFFF" d="M359.196,162.683l0.353,0.564l4.412,7.073l1.45,2.325l1.457,2.324l7.387,11.837l-2.559,16.208h-0.021
		l-0.398,2.605l-0.411,2.602l-0.665,4.236l-0.573,3.684l-2.058,13.16c-0.317,1.809,0.43,3.637,1.916,4.644l0.017,0.016
		c1.021,0.694,2.277,0.953,3.537,0.711l5.374-1.025c1.627-0.352,3.123-1.342,4.131-2.779c0.114-0.178,0.203-0.32,0.248-0.398
		l18.343-32.942c1.281-0.059,2.585-0.133,3.934-0.22c14.519-0.946,31.871-3.031,50.329-6.028l3.621,19.183
		c0.064,0.3,0.104,1.161,0.076,1.481l-4.919,55.073c-0.197,1.753,0.562,3.443,2.018,4.435c0.431,0.291,0.903,0.49,1.401,0.625
		c0.687,0.19,1.429,0.239,2.174,0.102l11.312-2.138c0.042-0.007,0.082-0.032,0.123-0.04c1.442-0.343,2.735-1.223,3.648-2.531
		c0.306-0.453,0.552-0.94,0.713-1.436l7.269-22.887l7.786-1.481c1.312-0.243,2.488-1.016,3.237-2.122
		c0.765-1.11,1.041-2.446,0.797-3.781l-1.08-5.705c-0.25-1.314-1.016-2.488-2.117-3.243c-0.94-0.64-2.074-0.953-3.176-0.875
		l1.021-3.202l8.501-1.609c1.313-0.248,2.485-1.023,3.238-2.131c0.756-1.119,1.046-2.459,0.796-3.781l-1.077-5.688
		c-0.236-1.319-1.018-2.503-2.129-3.265c-1.119-0.761-2.507-1.045-3.799-0.786l-0.061,0.002l7.146-22.5
		c3.195-0.526,6.223-1.027,9.1-1.482c16.694-2.704,28.745-4.658,38.688-8.063c12.316-4.226,22.276-10.546,26.65-16.928
		c1.399-2.073,2.094-3.976,2.121-5.72c0.021-0.203,0.056-0.742-0.084-1.401c-0.137-0.665-0.351-1.124-0.392-1.217
		c-0.69-1.706-2.04-3.222-4.111-4.635c-6.382-4.338-17.956-6.591-30.979-6.021c-10.525,0.463-22.5,3.055-39.082,6.645
		c-2.812,0.608-5.772,1.249-8.889,1.906l-14.868-18.345l0.088-0.012c1.319-0.257,2.491-1.035,3.209-2.102
		c0.777-1.115,1.057-2.503,0.808-3.812l-1.071-5.682c-0.252-1.314-1.013-2.498-2.129-3.259c-1.12-0.77-2.476-1.052-3.796-0.793
		l-8.488,1.61l-2.133-2.623c1.077-0.335,2.016-1.034,2.618-1.942c0.787-1.128,1.07-2.484,0.813-3.81l-1.081-5.702
		c-0.245-1.304-1.014-2.483-2.142-3.248c-1.114-0.765-2.466-1.039-3.777-0.785l-7.789,1.472l-15.116-18.645
		c-0.34-0.417-0.751-0.792-1.223-1.12c-1.359-0.902-2.956-1.256-4.488-0.97l-11.238,2.121c-1.273,0.245-2.397,0.98-3.049,1.959
		c-1.006,1.413-1.115,3.278-0.307,4.826l24.732,49.563c0.119,0.245,0.397,1.05,0.469,1.398l3.623,19.157
		c-18.31,3.958-35.214,8.356-49.064,12.771c-1.292,0.404-2.521,0.816-3.744,1.225l-29.002-23.884
		c-0.134-0.121-0.294-0.25-0.505-0.397c-1.437-0.937-3.205-1.322-4.911-1.029l-5.234,0.985c-1.289,0.232-2.409,0.953-3.074,1.944
		c-1.042,1.482-1.089,3.492-0.137,5.024L359.196,162.683z"/>
</g>
</svg>
