<?xml version="1.0" encoding="utf-8"?>
<!-- Generator: Adobe Illustrator 16.0.0, SVG Export Plug-In . SVG Version: 6.00 Build 0)  -->
<!DOCTYPE svg PUBLIC "-//W3C//DTD SVG 1.1//EN" "http://www.w3.org/Graphics/SVG/1.1/DTD/svg11.dtd">
<svg version="1.1" id="Ebene_1" xmlns="http://www.w3.org/2000/svg" xmlns:xlink="http://www.w3.org/1999/xlink" x="0px" y="0px"
	 width="1240px" height="1240px" viewBox="0 0 1240 1240" enable-background="new 0 0 1240 1240" xml:space="preserve">
<g>
	<path fill="#FFFFFF" d="M-1,1213.463V1077.95h21.684v135.513H-1z"/>
	<path fill="#FFFFFF" d="M307.961,1213.463v-102.72c0,0,0-16.534-16.264-16.534c-6.774,0-13.281,0.545-35.232,16.807v102.72h-21.684
		v-100.283c0,0.273,0.27-19.243-16.802-19.243c-6.776,0-16.262,1.901-34.692,16.265v103.262h-21.682v-108.411l-2.709-21.687
		l16.259-5.418l8.133,13.274c10.839-8.125,22.764-16.259,39.027-16.259c4.063,0,24.936,1.9,31.441,19.246
		c10.297-9.76,26.018-19.246,42.279-19.246c6.778,0,33.605,1.9,33.605,35.238v102.989H307.961z"/>
	<path fill="#FFFFFF" d="M497.652,1216.176c-8.401,0-35.234-1.898-35.234-35.236v-70.466c0-5.422,2.17-34.422,51.497-34.422
		c48.243,0,48.786,25.478,48.786,33.065v44.72h-78.601v26.833c0,8.129,5.694,16.804,20.056,16.804
		c6.232,0,32.793-3.252,52.038-13.011l8.131,16.263C564.325,1200.726,534.513,1216.176,497.652,1216.176z M541.021,1114.81
		c0-5.42-0.815-19.789-27.105-19.789c-27.917,0-29.814,15.995-29.814,20.6v20.33h56.92V1114.81z"/>
	<path fill="#FFFFFF" d="M775.704,1213.463v-102.72c0,0,0-16.534-16.253-16.534c-6.78,0-18.702,0.545-40.664,16.807v102.447h-21.672
		v-108.411l-2.712-21.683l16.251-5.419l8.133,13.544v0.277c11.116-7.864,28.742-16.536,44.993-16.536
		c6.78,0,33.615,1.9,33.615,35.238v102.989H775.704z"/>
	<path fill="#FFFFFF" d="M972.45,1216.445c0,0-32.247,0-32.247-37.951v-81.031h-16.267v-18.972h16.267v-23.308l21.409-8.132v31.439
		h40.665v18.972h-40.665v78.325c0,0,0,20.602,13.821,20.602c1.898,0,13.553-0.814,32.255-20.602l9.486,14.905
		C1017.175,1190.693,993.866,1216.445,972.45,1216.445z"/>
	<path fill="#FFFFFF" d="M1187.908,1216.445c-51.503,0-51.503-29-51.503-34.427v-72.359c0-5.416,2.175-34.424,51.503-34.424
		c51.497,0,51.497,29.008,51.497,34.424v72.359C1239.405,1182.019,1239.405,1216.445,1187.908,1216.445z M1217.72,1114.81
		c0-4.608-1.898-20.601-29.812-20.601c-27.919,0-29.817,15.992-29.817,20.601v63.154c0,5.688,2.437,19.51,29.817,19.51
		c27.374,0,29.812-13.822,29.812-19.51V1114.81z"/>
</g>
<g>
	<path fill="#FFFFFF" d="M926.243,714.385l-17.645-7.403l-4.614-1.934v50.059c-47.954-18.742-144.346-52.091-222.809-52.091
		c-35.008,0-60.476,6.832-78.99,16.935c0.2-40.409,0.2-109.701-0.265-228.996c-3.098-1.623-6.149-3.23-9.167-4.846l-0.788-0.41
		c-11.775-6.293-22.771-12.398-33.476-18.552c-0.127,31.339-0.255,67.713-0.349,104.073c-0.188,72.07-0.195,118.551-0.085,148.709
		c-18.518-10.088-43.968-16.913-78.958-16.913c-78.45,0-174.834,33.349-222.799,52.091V406.197
		c63.604-22.09,118.714-36.921,164.836-44.435c-6.951-8.597-12.521-16.924-17.17-25.645c-1.506-2.841-2.979-5.937-4.395-9.229
		c-0.604-1.413-1.097-2.772-1.622-4.147c-48.821,9.253-105.657,25.403-170.045,48.391l-14.109,5.032l0.004,410.726v0.241v32.421
		l28.578-12.702c12.992-2.795,71.46-14.852,135.745-20.987c121.968-11.682,162.374,6.69,175.609,18.686l6.071,5.504h29.447
		l12.997,1.984l5.319-12.327c4.771-5.49,60.329-60.532,309.672,6.84l29.253,13.018V666.073l-12.85,30.661L926.243,714.385z"/>
	<path fill="#FFFFFF" d="M729.413,317.394c-19.407-2.597-37.33-3.926-53.671-3.926c-50.607,0-79.33,12.533-95.597,26.114
		c-16.272-13.581-44.989-26.114-95.607-26.114c-5.859,0-11.99,0.229-18.253,0.561c2.965,5.065,6.667,10.383,11.15,15.911
		c3.415,4.201,7.181,8.452,11.514,12.989c9.773,10.248,21.534,20.885,35.922,32.51c13.252,10.68,27.833,21.413,44.572,32.82
		l0.155,0.105l0.03,0.025l0.259,0.169c3.776,2.575,7.568,5.13,11.382,7.641c6.604,4.364,13.357,8.708,20.388,13.128
		c-0.077-15.919-0.16-32.543-0.244-49.963c2.592-4.903,16.243-23.39,74.329-23.39c2.465,0,5.002,0.051,7.557,0.122l-1.84-12.03
		l-2.887-18.916l18.916-2.887L729.413,317.394z"/>
	<path fill="#FFFFFF" d="M512.861,439.209c-2.214-1.444-4.447-2.897-6.611-4.353c-6.287-4.215-11.982-8.168-17.464-12.108
		c-6.503-4.706-12.766-9.425-18.61-14.023c-6.557-5.157-12.633-10.244-18.331-15.301c-67.652,3.438-143.278,30.969-147.23,32.428
		l-19.945,7.347l14.693,39.882l19.942-7.339c30.527-11.251,120.959-38.192,172.169-27.949l20.838,4.163L512.861,439.209z"/>
	<path fill="#FFFFFF" d="M498.02,512.909c-70.856-14.173-185.418,27.564-190.262,29.357l-11.386,4.193l8.386,22.788l11.402-4.19
		c1.118-0.414,112.969-41.153,177.101-28.335l11.903,2.385l4.768-23.821L498.02,512.909z"/>
	<path fill="#FFFFFF" d="M498.02,553.98c-70.856-14.165-185.418,27.576-190.262,29.354l-11.386,4.201l8.386,22.789l11.402-4.196
		c1.118-0.414,112.969-41.143,177.101-28.327l11.903,2.377l4.768-23.815L498.02,553.98z"/>
	<path fill="#FFFFFF" d="M417.167,319.377c1.143,2.663,2.37,5.267,3.696,7.771c6.255,11.732,14.141,21.926,22.617,31.313
		c0.031,0.036,0.063,0.074,0.106,0.113c11.843,12.975,24.861,24.452,38.413,35.11c5.919,4.653,11.936,9.174,18.001,13.565
		c5.581,4.014,11.229,7.907,16.911,11.723c13.726,9.212,27.686,17.863,41.669,26.092c0.208,0.128,0.419,0.251,0.63,0.375
		c0.798,0.472,1.596,0.945,2.385,1.414c13.162,7.687,26.334,14.993,39.385,21.964c0.281,0.152,0.566,0.302,0.853,0.45
		c7.257,3.883,14.487,7.645,21.655,11.318c23.347,11.954,45.959,22.793,67.383,32.662l3.004-7.152l0.63-1.509
		c-20.601-10.899-42.294-22.8-64.566-35.794c-9.329-5.44-18.742-11.072-28.183-16.883c-0.24-0.147-0.474-0.283-0.708-0.431
		c-10.103-6.222-20.238-12.653-30.327-19.316c-3.877-2.561-7.739-5.16-11.598-7.788c-0.155-0.104-0.306-0.203-0.45-0.305
		c-15.636-10.655-31.057-21.86-45.803-33.733c-13.355-10.793-26.26-22.148-37.762-34.2c-4.394-4.604-8.595-9.308-12.513-14.127
		c-6.896-8.507-12.898-17.397-17.132-26.375c-0.094-0.201-0.205-0.4-0.298-0.598c-4.257-9.17-6.332-18.363-5.521-26.376
		c0.733-8.02,4.238-15.139,9.888-21.567c5.632-6.412,13.072-11.924,20.998-16.61c16.072-9.31,33.792-15.578,50.34-20.52
		c16.676-4.828,32.42-8.355,46.518-11.045c14.09-2.716,26.527-4.646,36.796-6.113c5.136-0.755,9.731-1.367,13.737-1.871
		c3.233-0.428,6.055-0.789,8.497-1.069l2.432-15.416l1.389-8.827l-2.617-4.215l-8.065-12.897c-2.353,0.412-5.051,0.899-8.093,1.474
		c-4.126,0.755-8.869,1.658-14.183,2.731c-10.622,2.121-23.513,4.847-38.254,8.537c-14.731,3.662-31.316,8.323-49.25,14.611
		c-8.964,3.205-18.248,6.826-27.754,11.186c-9.503,4.357-19.227,9.447-28.898,15.82c-9.604,6.46-19.3,14.223-27.571,24.753
		c-4.103,5.253-7.766,11.292-10.43,17.998c-2.668,6.688-4.238,14.041-4.486,21.359c-0.269,7.32,0.738,14.544,2.596,21.273
		C414.293,312.115,415.641,315.807,417.167,319.377z"/>
	<path fill="#FFFFFF" d="M307.758,621.909l-11.386,4.193l8.386,22.788l11.402-4.19c1.118-0.411,112.969-41.143,177.101-28.33
		l11.903,2.383l4.768-23.818l-11.912-2.377C427.163,578.39,312.601,620.131,307.758,621.909z"/>
	<polygon fill="#FFFFFF" points="700.372,341.175 702.812,357.172 717.086,450.726 722.793,437.112 730.192,419.466 
		747.837,426.868 748.964,427.344 748.964,404.443 748.964,385.314 768.083,385.314 898.896,385.314 946.491,385.314 
		966.639,385.314 953.999,302.48 787.329,327.906 	"/>
	<polygon fill="#FFFFFF" points="988.908,404.443 979.233,404.443 978.767,404.443 974.157,404.443 969.561,404.443 
		946.491,404.443 898.896,404.443 768.083,404.443 768.083,435.358 768.545,435.551 770.921,436.546 775.48,438.459 
		778.108,439.557 835.825,463.753 843.894,467.133 851.935,470.509 911.384,495.425 953.887,513.233 984.448,526.05 
		1002.085,533.454 994.696,551.094 989.964,562.372 1024.649,562.372 1024.649,404.443 	"/>
	<polygon fill="#FFFFFF" points="903.984,513.067 844.539,488.149 836.495,484.77 828.425,481.391 778.108,460.293 768.545,456.29 
		768.083,456.099 763.529,454.19 758.979,452.281 758.52,452.089 748.964,448.079 740.434,444.51 722.622,487.005 719.24,495.06 
		718.925,495.828 715.868,503.118 715.528,503.933 715.213,504.681 714.455,506.491 712.982,510.004 711.512,513.517 
		708.44,520.844 708.28,521.198 706.82,524.697 705.353,528.204 704.576,530.042 700.885,538.865 679.381,590.161 903.984,684.309 
		915.996,689.339 946.491,616.588 961.201,581.499 965.207,571.938 965.397,571.481 967.309,566.928 969.217,562.372 
		977.049,543.693 946.491,530.878 	"/>
	<path fill="#FFFFFF" d="M626.165,149.036l0.504,0.804l6.298,10.092l2.072,3.319l2.078,3.319l10.546,16.896l-3.651,23.132
		l-0.028,0.003l-0.571,3.72l-0.588,3.715l-0.945,6.044l-0.818,5.259l-2.937,18.785c-0.454,2.582,0.613,5.188,2.734,6.631
		l0.024,0.021c1.457,0.992,3.252,1.356,5.048,1.014l7.669-1.463c2.324-0.5,4.457-1.917,5.897-3.964
		c0.163-0.256,0.291-0.461,0.354-0.566l26.177-47.021c1.829-0.085,3.691-0.191,5.614-0.312c20.727-1.353,45.493-4.329,71.841-8.607
		l5.168,27.381c0.091,0.425,0.147,1.658,0.109,2.112l-7.021,78.611c-0.283,2.501,0.801,4.912,2.876,6.327
		c0.615,0.417,1.296,0.7,2.001,0.892c0.985,0.27,2.04,0.34,3.107,0.142l16.145-3.05c0.057-0.011,0.117-0.046,0.177-0.056
		c2.059-0.489,3.904-1.747,5.204-3.613c0.436-0.648,0.786-1.343,1.016-2.052l10.38-32.666l11.115-2.11
		c1.87-0.349,3.549-1.453,4.622-3.033c1.091-1.586,1.488-3.491,1.138-5.397l-1.541-8.145c-0.354-1.876-1.449-3.548-3.022-4.626
		c-1.343-0.918-2.961-1.359-4.534-1.25l1.464-4.572l12.129-2.296c1.877-0.354,3.549-1.459,4.626-3.039
		c1.079-1.598,1.495-3.515,1.134-5.398l-1.534-8.118c-0.337-1.885-1.456-3.575-3.04-4.662c-1.602-1.083-3.581-1.488-5.422-1.119
		l-0.09,0.007l10.198-32.113c4.56-0.751,8.884-1.467,12.99-2.118c23.827-3.861,41.025-6.645,55.215-11.508
		c17.58-6.034,31.799-15.056,38.043-24.162c1.995-2.962,2.99-5.674,3.028-8.165c0.026-0.291,0.079-1.06-0.123-2.002
		c-0.19-0.949-0.496-1.601-0.561-1.734c-0.98-2.438-2.911-4.599-5.865-6.617c-9.111-6.192-25.635-9.405-44.225-8.591
		c-15.018,0.659-32.109,4.361-55.778,9.483c-4.017,0.867-8.243,1.781-12.692,2.721l-21.217-26.185l0.123-0.014
		c1.884-0.369,3.561-1.48,4.58-3c1.109-1.591,1.51-3.575,1.156-5.441l-1.53-8.108c-0.356-1.877-1.446-3.567-3.041-4.65
		c-1.597-1.103-3.527-1.503-5.416-1.13l-12.117,2.295l-3.039-3.741c1.533-0.481,2.876-1.479,3.737-2.772
		c1.119-1.612,1.526-3.546,1.158-5.438l-1.541-8.14c-0.347-1.856-1.449-3.542-3.053-4.634c-1.596-1.092-3.521-1.484-5.399-1.119
		l-11.115,2.1l-21.575-26.612c-0.484-0.594-1.073-1.13-1.75-1.601c-1.941-1.289-4.219-1.789-6.404-1.381l-16.039,3.024
		c-1.816,0.347-3.426,1.403-4.357,2.799c-1.432,2.019-1.587,4.679-0.436,6.885l35.307,70.746c0.169,0.347,0.566,1.498,0.665,1.997
		l5.171,27.339c-26.134,5.653-50.264,11.931-70.028,18.235c-1.846,0.574-3.603,1.162-5.346,1.75l-41.395-34.094
		c-0.19-0.17-0.422-0.357-0.722-0.563c-2.056-1.338-4.574-1.885-7.011-1.471l-7.47,1.407c-1.84,0.333-3.441,1.359-4.388,2.777
		c-1.489,2.111-1.554,4.98-0.191,7.17L626.165,149.036z"/>
</g>
</svg>
